<?xml version="1.0" encoding="UTF-8"?>
<svg id="_レイヤー_2" data-name="レイヤー 2" xmlns="http://www.w3.org/2000/svg" viewBox="0 0 653.17 165.8">
  <defs>
    <style>
      .cls-1 {
        fill: #57abff;
      }
    </style>
  </defs>
  <g id="_レイヤー_1-2" data-name="レイヤー 1">
    <rect class="cls-1" x="82.55" y="110.76" width="13.06" height="15.98" rx="2.63" ry="2.63"/>
    <rect class="cls-1" x="100.59" y="110.76" width="13.06" height="15.98" rx="2.63" ry="2.63"/>
    <rect x="118.49" y="110.76" width="44.08" height="15.98" rx="2.63" ry="2.63"/>
    <rect class="cls-1" x="149.51" y="137.34" width="13.06" height="15.98" rx="2.63" ry="2.63"/>
    <rect x="100.5" y="137.34" width="44.08" height="15.98" rx="2.63" ry="2.63"/>
    <path class="cls-1" d="M24.43,99.57c-5.12,8.69-4.34,20.25,4.9,25.89,7.89,4.81,18.84,3.48,25.72-2.51,7.11-6.19,8.55-16.65,3.95-24.8-4.64-8.23-13.25-11.82-22.27-12.72-8.34-.83-16.94.92-22.64,7.48-6.08,7-7.42,16.81-3.92,25.32s10.98,15.04,20.63,16.12c8.07.91,17.12.3,23.75-4.82,8.37-6.46,12.02-18.06,7.47-27.73s-12.47-17.62-23.41-17.08l3.15,23.26c-.91.12-.61.16.89.11-.93-.01-.65.13.82.43-1.12-.6,1.3,1.44.47.58.44.46,1.04,1.34.41,3.12.26-.72-.47,1.67-.49,1.11-1.4,1.28-1.05,1.12,1.04-.46.27-.54-.24-.57-1.52-.08-.09-.04-3.26-.09-2.98-.46.84-1.1,2.12,4.53,1.47.62-1.05-6.31-8.86-9.84-14.57-8.27-6.7,1.84-9.32,8.24-8.27,14.57,1.81,10.94,12.65,16.6,22.79,17.18,10.52.6,19.26-3.99,23.71-13.69s3.21-21.27-3.94-29.38c-6.67-7.57-16.48-9.97-26.12-8.21-13.12,2.39-10.12,23.93,3.15,23.26-1.3.07-.82-1.69.15.29.54,1.1,1.31,2.75,2.13,3.67.87,1.73.79.8-.23-2.8.29-.29.21-.1-.24.57-1.97-.32-.16.67-.31.65-2.03-.27-5.3.44-7.76.06,1.64.25,1.78,1.81.31-.34-.32-.47-.71-1.4-.73-1.45.15.36-2.66,1.65.06-.97-.23.22-.04.63-.51.72,1.61-.32,3.6.37,5.25.43,2.97.11.57.94,1.58-2.22,2.21-6.89,6.02,5.47,6.58,4.52,7.75-13.16-12.71-25.09-20.45-11.96h0Z"/>
    <path class="cls-1" d="M88.95,34.6c-.16-1.57-.31-3.14-.42-4.71-.05-.63-.08-1.26-.11-1.89.1-1.58-.25-1.31-1.04.82l-3.68,2.14c-1.13.47-1.99-1.19.14.66.94.82,1.95,1.56,2.94,2.31,2.17,1.67,4.37,3.28,6.66,4.77,4.42,2.88,9.45,4.89,13.74,7.94,8.57,6.11,5.51,18.08,3.55,26.72l16.37,2.22c.44-5.6-2.24-10.15-4.97-14.8s-4.23-9.54-7.23-13.83c-5.98-8.55-14.95-13.75-24.36-17.77-4.14-1.76-8.93-1.24-11.4,2.99-2.05,3.5-1.17,9.63,2.99,11.4,6.56,2.8,13.87,5.99,18.38,11.79,2.35,3.03,3.62,6.81,5.29,10.22,1.51,3.07,4.91,6.51,4.64,10-.73,9.37,14.3,11.33,16.37,2.22,2.19-9.66,4.29-20.06,1.05-29.74s-9.97-14.76-18.48-19.34c-4.13-2.22-8.16-4.64-11.92-7.45s-6.8-5.98-11.45-6.94c-5-1.03-10.31,1.23-12.79,5.72s-1.43,9.86-.94,14.56,3.5,8.33,8.33,8.33c4.14,0,8.8-3.83,8.33-8.33h0Z"/>
    <path d="M142.2,69.1c-.82,4.11-2.19,7.22-2.45,7.78h20.19c1.45,0,2.63-1.18,2.63-2.63v-10.72c0-1.45-1.18-2.63-2.63-2.63h-12.36l-4.48.03s-.06,3.91-.91,8.17Z"/>
    <path d="M159.94,102.41c1.45,0,2.63-1.18,2.63-2.63v-10.72c0-1.45-1.18-2.63-2.63-2.63h-23.79l-1.78.13s-5.33,6.56-6.89,7.96c-1.54,1.38-7.86,6.5-9.84,7.89h42.3Z"/>
    <path d="M82.86,89.07v10.72c0,1.45,1.18,2.63,2.63,2.63h11.97c0-.34.01-.92.25-2.23.25-1.39.82-2.05,1.8-6.07.98-4.02,1.23-7.63,1.23-7.63l-1.09-.04h-14.16c-1.45,0-2.63,1.18-2.63,2.63Z"/>
    <path d="M95.16,67.45c-3.27-4.17-4.34-5.41-6.13-6.55h-3.54c-1.45,0-2.63,1.18-2.63,2.63v10.72c0,1.45,1.18,2.63,2.63,2.63h13.23l.8-.08s-1.07-5.17-4.35-9.35Z"/>
    <g>
      <path d="M138.6,63.07C141.37,23.84,79.52,2.24,76.89,1.34l-3.53-1.21c-1.41-.48-2.91.41-3.17,1.88l-13.24,76.06c-.27,1.54-1.9,2.44-3.33,1.81-6.09-2.67-13.07-3.89-20.32-3.16-9.78.99-18.6,5.31-24.84,12.15C2.09,95.87-.84,104.65.21,113.61c1.74,14.82,14.14,26.3,29.64,28.99,3.6.63,7.38.78,11.22.39,9.78-.99,18.6-5.3,24.84-12.15,6.38-7,9.31-15.78,8.26-24.73-.72-6.1-3.26-11.62-7.07-16.21-.45-.54-.65-1.24-.53-1.94l6.49-37.3c.27-1.55,1.92-2.44,3.36-1.8,6.01,2.66,13.96,6.74,18.14,10.9,14.91,14.85,9.75,33.74,9.53,34.51l-2.1,7.12c-.61,2.07,1.58,3.84,3.48,2.81l6.73-3.64c1.01-.55,24.71-13.64,26.4-37.49ZM57.53,123.6c-4.41,4.84-10.7,7.89-17.73,8.6-14.27,1.45-27.06-7.4-28.51-19.71-.69-5.87,1.29-11.68,5.56-16.37,4.41-4.84,10.7-7.89,17.72-8.6,2.79-.28,5.53-.17,8.13.28,10.72,1.86,19.22,9.53,20.38,19.44.69,5.87-1.28,11.68-5.56,16.37ZM120.03,79.65c-1.33,1.64-3.97.91-4.27-1.18-1.17-8.12-4.64-17.69-13.25-26.26-6.82-6.78-19.3-12.37-25.22-14.77-1.05-.43-1.66-1.53-1.46-2.65l3.09-17.78c.27-1.55,1.92-2.44,3.36-1.8,5.46,2.42,12.72,6.01,19.83,10.64,12.18,7.94,26.47,20.69,25.36,36.37-.49,6.96-3.69,12.84-7.44,17.44Z"/>
      <g>
        <g>
          <rect x="607.94" y="110.96" width="45.18" height="15.98" rx="2.63" ry="2.63"/>
          <path d="M653.17,62.34c0-1.15-.93-2.09-2.09-2.09l-38.09.02c-4.4,0-8.4.53-12.01,1.6-1.6.53-3.3,1.37-5.1,2.5s-3.77,2.56-5.9,4.29c-4,3.46-6,9.45-6,17.97v51.92c0,10.12,3.4,17.05,10.2,20.77,7.07,3.86,13.47,5.79,19.21,5.79h37.69c1.15,0,2.09-.93,2.09-2.09v-13.25c0-1.15-.93-2.09-2.09-2.09h-37.49c-3.74.01-6.67-1.25-8.8-3.79-2.14-2.67-3.2-5.8-3.2-9.4v-45.62c0-7.47,3.8-11.21,11.41-11.21h38.09c1.15,0,2.09-.94,2.09-2.09v-13.25Z"/>
        </g>
        <path d="M530.58,82.52c-2.8-14.38-12.14-21.57-28.01-21.57h-38.6c-1.07-.04-1.92-.88-1.99-1.94h-.02l-.19-31.14c0-1.15-.93-2.09-2.09-2.09h-13.25c-1.15,0-2.09.93-2.09,2.09v108.32c0,7.47,2.53,14.34,7.6,20.61,4.93,6,11.14,9,18.61,9h34.42c1.73,0,3.33-.2,4.8-.6,1.73-.4,5.67-2,11.81-4.79,6.4-2.93,9.6-10.25,9.6-21.97v-51.12l-.6-4.79ZM513.57,137.79l-.2.6c-.93,5.74-3.47,9-7.6,9.8l-1.8.2h-30.61c-3.47,0-6.24-1.2-8.3-3.6-2.07-2.4-3.1-5.4-3.1-9v-46.22c0-7.47,3.13-11.21,9.4-11.21h30.61c7.74,0,11.61,3.87,11.61,11.61v47.82Z"/>
        <g>
          <rect x="548.96" y="25.78" width="17.42" height="112.51" rx="2.09" ry="2.09"/>
          <rect class="cls-1" x="548.96" y="147.73" width="17.42" height="18.08" rx="2.09" ry="2.09"/>
        </g>
        <g>
          <rect class="cls-1" x="184.4" y="60.94" width="17.42" height="15.99" rx="2.09" ry="2.09"/>
          <path d="M271.2,63.03c0-1.15-.93-2.09-2.09-2.09h-13.25c-1.15,0-2.09.93-2.09,2.09v13.9c0,.08.02.16.02.24l-.17,59.42c0,4.4-.9,7.4-2.7,9-1.8,1.6-4.84,2.4-9.1,2.4h-27.81c-7.07,0-11-2.2-11.81-6.6l-.39-52.87c0-1.15-.93-2.09-2.09-2.09h-13.25c-1.15,0-2.09.93-2.09,2.09v50.27c0,18.01,9.87,27.01,29.61,27.01h27.61c19.74,0,29.61-9,29.61-27.01v-58.56h0l-.05-17.2Z"/>
        </g>
        <path d="M327.09,60.64l-12.78-.03-.19-32.73c0-1.15-.93-2.09-2.09-2.09h-13.25c-1.15,0-2.09.93-2.09,2.09v32.73l-5.77.03c-1.15,0-2.09.93-2.09,2.09v13.43c0,1.15.93,2.09,2.09,2.09h3.97c.97.13,1.73.92,1.8,1.91v83.42c0,1.15.93,2.09,2.09,2.09h13.25c1.15,0,2.09-.93,2.09-2.09l.19-83.38h.02c.04-.97.74-1.75,1.66-1.94h11.1c1.15,0,2.09-.93,2.09-2.09v-13.43c0-1.15-.93-2.09-2.09-2.09Z"/>
        <path d="M426.15,80.33c-3.2-12.91-11.54-19.37-25.01-19.37l-51.54-.18c-1.15,0-2.09.93-2.09,2.09v13.3c0,1.15.93,2.09,2.09,2.09l52.74.12c1.87,0,3.43.7,4.7,2.1,1.27,1.4,1.9,3.04,1.9,4.9v5.26c-.15.94-.91,1.66-1.87,1.74h-41.35c-4.54,0-8.5.8-11.91,2.4-3.4,1.6-6.2,3.87-8.4,6.8-2.2,2.94-3.84,6.37-4.9,10.3-1.07,3.94-1.6,8.3-1.6,13.11v12.61c0,3.47.73,7.27,2.2,11.4,1.6,4,4.8,7.8,9.6,11.41,4.93,3.6,10,5.4,15.21,5.4h35.02c8.94,0,15.14-2.79,18.61-8.39,3.47-5.46,5.53-9.25,6.2-11.38.53-1.73.8-4.06.8-6.99v-53.92l-.4-4.79ZM408.94,137.99c0,6.94-4.8,10.4-14.41,10.4h-23.61c-4.67,0-7.94-.53-9.8-1.6-3.07-1.87-4.6-4.8-4.6-8.8v-17.01c0-6.67,4.13-10.4,12.41-11.21h27.81c8.13.94,12.21,4.67,12.21,11.21v17.01Z"/>
      </g>
    </g>
  </g>
</svg>